<svg width="227" height="195" viewBox="0 0 227 195" fill="none" xmlns="http://www.w3.org/2000/svg">
<g clip-path="url(#clip0_618_41)">
<rect width="213.74" height="195.427" rx="6" transform="matrix(1 0 -0.0660997 0.997813 13 0)" fill="#F43F5E"/>
<rect x="1.40085" y="1.49672" width="210.74" height="192.427" rx="4.5" transform="matrix(1 0 -0.0660997 0.997813 13.0989 0.00327335)" stroke="#BBBBBB" stroke-opacity="0.24" stroke-width="3"/>
<path d="M71.9192 89.3447C72.3628 88.9 72.8897 88.5472 73.4698 88.3065C74.0499 88.0658 74.6718 87.9419 75.2999 87.9419C75.928 87.9419 76.5499 88.0658 77.13 88.3065C77.7101 88.5472 78.237 88.9 78.6806 89.3447L97.7806 108.445C98.2253 108.888 98.5781 109.415 98.8188 109.995C99.0595 110.575 99.1834 111.197 99.1834 111.825C99.1834 112.453 99.0595 113.075 98.8188 113.655C98.5781 114.236 98.2253 114.763 97.7806 115.206L78.6806 134.306C78.2366 134.75 77.7096 135.102 77.1295 135.342C76.5495 135.583 75.9278 135.706 75.2999 135.706C74.672 135.706 74.0503 135.583 73.4703 135.342C72.8902 135.102 72.3632 134.75 71.9192 134.306C71.4752 133.862 71.1231 133.335 70.8828 132.755C70.6425 132.175 70.5189 131.553 70.5189 130.925C70.5189 130.298 70.6425 129.676 70.8828 129.096C71.1231 128.516 71.4752 127.989 71.9192 127.545L87.6481 111.825L71.9192 96.1061C71.4745 95.6625 71.1217 95.1356 70.881 94.5555C70.6403 93.9754 70.5164 93.3535 70.5164 92.7254C70.5164 92.0973 70.6403 91.4754 70.881 90.8953C71.1217 90.3152 71.4745 89.7882 71.9192 89.3447ZM151.7 126.15H108.725C107.458 126.15 106.244 126.653 105.348 127.549C104.453 128.444 103.95 129.659 103.95 130.925C103.95 132.192 104.453 133.406 105.348 134.302C106.244 135.197 107.458 135.7 108.725 135.7H151.7C152.966 135.7 154.181 135.197 155.076 134.302C155.972 133.406 156.475 132.192 156.475 130.925C156.475 129.659 155.972 128.444 155.076 127.549C154.181 126.653 152.966 126.15 151.7 126.15ZM46.6499 54.5254C46.6499 48.1933 49.1653 42.1206 53.6427 37.6432C58.1202 33.1658 64.1929 30.6504 70.5249 30.6504H156.475C162.807 30.6504 168.88 33.1658 173.357 37.6432C177.835 42.1206 180.35 48.1933 180.35 54.5254V140.475C180.35 146.807 177.835 152.88 173.357 157.358C168.88 161.835 162.807 164.35 156.475 164.35H70.5249C64.1929 164.35 58.1202 161.835 53.6427 157.358C49.1653 152.88 46.6499 146.807 46.6499 140.475V54.5254ZM60.9749 68.8504V138.088C60.9749 144.677 66.3229 150.025 72.9124 150.025H154.087C160.677 150.025 166.025 144.677 166.025 138.088V68.8504H60.9749Z" fill="white"/>
</g>
<defs>
<clipPath id="clip0_618_41">
<rect width="227" height="195" fill="white"/>
</clipPath>
</defs>
</svg>
